RobotoDelta-opszmin-old.ufo
<glyph name="zero" format="1">
  <advance width="1244"/>
  <unicode hex="0030"/>
  <outline>
    <contour>
      <point x="120" y="498" type="line" smooth="yes"/>
      <point x="120" y="243"/>
      <point x="381" y="-32"/>
      <point x="623" y="-32" type="qcurve" smooth="yes"/>
      <point x="864" y="-32"/>
      <point x="1124" y="243"/>
      <point x="1124" y="498" type="qcurve" smooth="yes"/>
      <point x="1124" y="965" type="line" smooth="yes"/>
      <point x="1124" y="1219"/>
      <point x="863" y="1492"/>
      <point x="621" y="1492" type="qcurve" smooth="yes"/>
      <point x="380" y="1492"/>
      <point x="120" y="1219"/>
      <point x="120" y="965" type="qcurve" smooth="yes"/>
    </contour>
    <contour>
      <point x="328" y="494" type="qcurve" smooth="yes"/>
      <point x="328" y="971" type="line" smooth="yes"/>
      <point x="328" y="1134"/>
      <point x="480" y="1310"/>
      <point x="621" y="1310" type="qcurve" smooth="yes"/>
      <point x="763" y="1310"/>
      <point x="916" y="1134"/>
      <point x="916" y="971" type="qcurve" smooth="yes"/>
      <point x="916" y="494" type="line" smooth="yes"/>
      <point x="916" y="328"/>
      <point x="764" y="148"/>
      <point x="623" y="148" type="qcurve" smooth="yes"/>
      <point x="481" y="148"/>
      <point x="328" y="328"/>
    </contour>
  </outline>
</glyph>
<glyph name="four" format="1">
  <advance width="1244"/>
  <unicode hex="0034"/>
  <outline>
    <contour>
      <point x="780" y="0" type="line"/>
      <point x="968" y="0" type="line"/>
      <point x="968" y="1456" type="line"/>
      <point x="785" y="1456" type="line"/>
      <point x="66" y="478" type="line"/>
      <point x="66" y="344" type="line"/>
      <point x="1187" y="344" type="line"/>
      <point x="1187" y="510" type="line"/>
      <point x="880" y="510" type="line"/>
      <point x="850" y="507" type="line"/>
      <point x="288" y="507" type="line"/>
      <point x="768" y="1161" type="line"/>
      <point x="786" y="1161" type="line"/>
      <point x="786" y="421" type="line"/>
      <point x="780" y="405" type="line"/>
    </contour>
  </outline>
</glyph>
<glyph name="eight" format="1">
  <advance width="1244"/>
  <unicode hex="0038"/>
  <outline>
    <contour>
      <point x="120" y="391" type="qcurve" smooth="yes"/>
      <point x="120" y="190"/>
      <point x="405" y="-32"/>
      <point x="622" y="-32" type="qcurve" smooth="yes"/>
      <point x="838" y="-32"/>
      <point x="1124" y="190"/>
      <point x="1124" y="391" type="qcurve" smooth="yes"/>
      <point x="1124" y="517"/>
      <point x="976" y="699"/>
      <point x="844" y="746" type="qcurve"/>
      <point x="844" y="750" type="line"/>
      <point x="949" y="798"/>
      <point x="1074" y="976"/>
      <point x="1074" y="1084" type="qcurve" smooth="yes"/>
      <point x="1074" y="1275"/>
      <point x="814" y="1492"/>
      <point x="621" y="1492" type="qcurve" smooth="yes"/>
      <point x="429" y="1492"/>
      <point x="169" y="1275"/>
      <point x="169" y="1084" type="qcurve" smooth="yes"/>
      <point x="169" y="976"/>
      <point x="294" y="798"/>
      <point x="398" y="750" type="qcurve"/>
      <point x="398" y="747" type="line"/>
      <point x="266" y="701"/>
      <point x="120" y="518"/>
    </contour>
    <contour>
      <point x="359" y="1072" type="qcurve" smooth="yes"/>
      <point x="359" y="1177"/>
      <point x="502" y="1314"/>
      <point x="621" y="1314" type="qcurve" smooth="yes"/>
      <point x="740" y="1314"/>
      <point x="884" y="1176"/>
      <point x="884" y="1072" type="qcurve" smooth="yes"/>
      <point x="884" y="966"/>
      <point x="741" y="829"/>
      <point x="622" y="829" type="qcurve" smooth="yes"/>
      <point x="503" y="829"/>
      <point x="359" y="966"/>
    </contour>
    <contour>
      <point x="314" y="400" type="qcurve" smooth="yes"/>
      <point x="314" y="514"/>
      <point x="481" y="661"/>
      <point x="620" y="661" type="qcurve" smooth="yes"/>
      <point x="759" y="661"/>
      <point x="929" y="514"/>
      <point x="929" y="400" type="qcurve" smooth="yes"/>
      <point x="929" y="284"/>
      <point x="762" y="144"/>
      <point x="622" y="144" type="qcurve" smooth="yes"/>
      <point x="482" y="144"/>
      <point x="314" y="284"/>
    </contour>
  </outline>
</glyph>
<glyph name="nine" format="1">
  <advance width="1244"/>
  <unicode hex="0039"/>
  <outline>
    <contour>
      <point x="65" y="994" type="qcurve" smooth="yes"/>
      <point x="65" y="799"/>
      <point x="314" y="528"/>
      <point x="537" y="528" type="qcurve" smooth="yes"/>
      <point x="693" y="528"/>
      <point x="901" y="678"/>
      <point x="954" y="843" type="qcurve"/>
      <point x="942" y="1057" type="line"/>
      <point x="912" y="863"/>
      <point x="718" y="697"/>
      <point x="575" y="697" type="qcurve" smooth="yes"/>
      <point x="428" y="697"/>
      <point x="263" y="863"/>
      <point x="263" y="1001" type="qcurve" smooth="yes"/>
      <point x="263" y="1140"/>
      <point x="425" y="1321"/>
      <point x="580" y="1321" type="qcurve" smooth="yes"/>
      <point x="740" y="1321"/>
      <point x="927" y="1086"/>
      <point x="927" y="844" type="qcurve" smooth="yes"/>
      <point x="927" y="795" type="line" smooth="yes"/>
      <point x="927" y="423"/>
      <point x="582" y="140"/>
      <point x="318" y="140" type="qcurve" smooth="yes"/>
      <point x="286" y="140" type="line"/>
      <point x="286" y="-32" type="line"/>
      <point x="303" y="-32" type="line" smooth="yes"/>
      <point x="695" y="-32"/>
      <point x="1126" y="409"/>
      <point x="1126" y="793" type="qcurve" smooth="yes"/>
      <point x="1126" y="821" type="line" smooth="yes"/>
      <point x="1126" y="1187"/>
      <point x="795" y="1488"/>
      <point x="575" y="1488" type="qcurve" smooth="yes"/>
      <point x="344" y="1488"/>
      <point x="65" y="1195"/>
    </contour>
  </outline>
</glyph>
<glyph name="D" format="1">
  <advance width="1493"/>
  <unicode hex="0044"/>
  <outline>
    <contour>
      <point x="184" y="0" type="line"/>
      <point x="642" y="0" type="line" smooth="yes"/>
      <point x="984" y="0"/>
      <point x="1373" y="370"/>
      <point x="1373" y="691" type="qcurve" smooth="yes"/>
      <point x="1373" y="766" type="line" smooth="yes"/>
      <point x="1373" y="1085"/>
      <point x="986" y="1456"/>
      <point x="662" y="1456" type="qcurve" smooth="yes"/>
      <point x="184" y="1456" type="line"/>
    </contour>
    <contour>
      <point x="389" y="171" type="line"/>
      <point x="389" y="1284" type="line"/>
      <point x="662" y="1284" type="line" smooth="yes"/>
      <point x="914" y="1284"/>
      <point x="1169" y="1012"/>
      <point x="1169" y="768" type="qcurve" smooth="yes"/>
      <point x="1169" y="690" type="line" smooth="yes"/>
      <point x="1169" y="456"/>
      <point x="914" y="171"/>
      <point x="643" y="171" type="qcurve" smooth="yes"/>
    </contour>
  </outline>
</glyph>
<glyph name="I" format="1">
  <advance width="585"/>
  <unicode hex="0049"/>
  <outline>
    <contour>
      <point x="190" y="0" type="line"/>
      <point x="395" y="0" type="line"/>
      <point x="395" y="1456" type="line"/>
      <point x="190" y="1456" type="line"/>
    </contour>
    <contour>
      <point x="271" y="1432" type="move" name="top"/>
    </contour>
  </outline>
</glyph>
<glyph name="J" format="1">
  <advance width="1233"/>
  <unicode hex="004A"/>
  <outline>
    <contour>
      <point x="80" y="390" type="line" smooth="yes"/>
      <point x="80" y="182"/>
      <point x="350" y="-32"/>
      <point x="561" y="-32" type="qcurve" smooth="yes"/>
      <point x="771" y="-32"/>
      <point x="1061" y="209"/>
      <point x="1061" y="428" type="qcurve" smooth="yes"/>
      <point x="1061" y="1456" type="line"/>
      <point x="858" y="1456" type="line"/>
      <point x="858" y="428" type="line" smooth="yes"/>
      <point x="858" y="295"/>
      <point x="690" y="139"/>
      <point x="561" y="139" type="qcurve" smooth="yes"/>
      <point x="433" y="139"/>
      <point x="284" y="270"/>
      <point x="284" y="390" type="qcurve" smooth="yes"/>
      <point x="284" y="405" type="line"/>
      <point x="80" y="405" type="line"/>
    </contour>
  </outline>
</glyph>
<glyph name="M" format="1">
  <advance width="1922"/>
  <unicode hex="004D"/>
  <outline>
    <contour>
      <point x="184" y="0" type="line"/>
      <point x="377" y="0" type="line"/>
      <point x="377" y="920" type="line" smooth="yes"/>
      <point x="377" y="968"/>
      <point x="372" y="1181"/>
      <point x="369" y="1210" type="qcurve"/>
      <point x="379" y="1210" type="line"/>
      <point x="385" y="1184"/>
      <point x="418" y="1066"/>
      <point x="429" y="1040" type="qcurve" smooth="yes"/>
      <point x="870" y="0" type="line"/>
      <point x="1049" y="0" type="line"/>
      <point x="1488" y="1047" type="line" smooth="yes"/>
      <point x="1499" y="1073"/>
      <point x="1535" y="1192"/>
      <point x="1541" y="1218" type="qcurve"/>
      <point x="1550" y="1218" type="line"/>
      <point x="1545" y="1190"/>
      <point x="1540" y="968"/>
      <point x="1540" y="920" type="qcurve" smooth="yes"/>
      <point x="1540" y="0" type="line"/>
      <point x="1738" y="0" type="line"/>
      <point x="1738" y="1456" type="line"/>
      <point x="1462" y="1456" type="line"/>
      <point x="1001" y="345" type="line" smooth="yes"/>
      <point x="994" y="327"/>
      <point x="970" y="264"/>
      <point x="966" y="248" type="qcurve"/>
      <point x="956" y="248" type="line"/>
      <point x="953" y="264"/>
      <point x="928" y="330"/>
      <point x="921" y="348" type="qcurve" smooth="yes"/>
      <point x="459" y="1456" type="line"/>
      <point x="184" y="1456" type="line"/>
    </contour>
  </outline>
</glyph>
<glyph name="R" format="1">
  <advance width="1331"/>
  <unicode hex="0052"/>
  <outline>
    <contour>
      <point x="184" y="0" type="line"/>
      <point x="390" y="0" type="line"/>
      <point x="390" y="554" type="line"/>
      <point x="800" y="554" type="line"/>
      <point x="993" y="590"/>
      <point x="1213" y="827"/>
      <point x="1213" y="1001" type="qcurve" smooth="yes"/>
      <point x="1213" y="1216"/>
      <point x="933" y="1456"/>
      <point x="679" y="1456" type="qcurve" smooth="yes"/>
      <point x="184" y="1456" type="line"/>
    </contour>
    <contour>
      <point x="390" y="725" type="line"/>
      <point x="390" y="1284" type="line"/>
      <point x="675" y="1284" type="line" smooth="yes"/>
      <point x="851" y="1284"/>
      <point x="1009" y="1142"/>
      <point x="1009" y="1001" type="qcurve" smooth="yes"/>
      <point x="1009" y="860"/>
      <point x="845" y="719"/>
      <point x="682" y="725" type="qcurve" smooth="yes"/>
    </contour>
    <contour>
      <point x="1065" y="0" type="line"/>
      <point x="1290" y="0" type="line"/>
      <point x="911" y="661" type="line"/>
      <point x="691" y="661" type="line"/>
    </contour>
  </outline>
</glyph>
<glyph name="S" format="1">
  <advance width="1312"/>
  <unicode hex="0053"/>
  <outline>
    <contour>
      <point x="98" y="392" type="line" smooth="yes"/>
      <point x="98" y="183"/>
      <point x="415" y="-32"/>
      <point x="672" y="-32" type="qcurve" smooth="yes"/>
      <point x="922" y="-32"/>
      <point x="1222" y="191"/>
      <point x="1222" y="385" type="qcurve" smooth="yes"/>
      <point x="1222" y="577"/>
      <point x="962" y="780"/>
      <point x="706" y="845" type="qcurve" smooth="yes"/>
      <point x="506" y="895"/>
      <point x="336" y="1005"/>
      <point x="336" y="1093" type="qcurve" smooth="yes"/>
      <point x="337" y="1188"/>
      <point x="484" y="1308"/>
      <point x="649" y="1308" type="qcurve" smooth="yes"/>
      <point x="820" y="1308"/>
      <point x="987" y="1179"/>
      <point x="987" y="1070" type="qcurve" smooth="yes"/>
      <point x="987" y="1056" type="line"/>
      <point x="1191" y="1056" type="line"/>
      <point x="1191" y="1071" type="line" smooth="yes"/>
      <point x="1191" y="1236"/>
      <point x="923" y="1488"/>
      <point x="658" y="1488" type="qcurve" smooth="yes"/>
      <point x="419" y="1488"/>
      <point x="131" y="1250"/>
      <point x="131" y="1077" type="qcurve" smooth="yes"/>
      <point x="131" y="906"/>
      <point x="370" y="713"/>
      <point x="623" y="647" type="qcurve" smooth="yes"/>
      <point x="849" y="588"/>
      <point x="1016" y="474"/>
      <point x="1016" y="369" type="qcurve" smooth="yes"/>
      <point x="1016" y="267"/>
      <point x="836" y="143"/>
      <point x="660" y="143" type="qcurve" smooth="yes"/>
      <point x="493" y="143"/>
      <point x="302" y="273"/>
      <point x="302" y="397" type="qcurve" smooth="yes"/>
      <point x="302" y="405" type="line"/>
      <point x="98" y="405" type="line"/>
    </contour>
  </outline>
</glyph>
<glyph name="U" format="1">
  <advance width="1465"/>
  <unicode hex="0055"/>
  <outline>
    <contour>
      <point x="170" y="477" type="line" smooth="yes"/>
      <point x="170" y="216"/>
      <point x="477" y="-42"/>
      <point x="732" y="-42" type="qcurve" smooth="yes"/>
      <point x="987" y="-42"/>
      <point x="1295" y="216"/>
      <point x="1295" y="477" type="qcurve" smooth="yes"/>
      <point x="1295" y="1456" type="line"/>
      <point x="1091" y="1456" type="line"/>
      <point x="1091" y="490" type="line" smooth="yes"/>
      <point x="1091" y="307"/>
      <point x="896" y="140"/>
      <point x="732" y="140" type="qcurve" smooth="yes"/>
      <point x="569" y="140"/>
      <point x="374" y="307"/>
      <point x="374" y="490" type="qcurve" smooth="yes"/>
      <point x="374" y="1456" type="line"/>
      <point x="170" y="1456" type="line"/>
    </contour>
    <contour>
      <point x="682" y="1432" type="move" name="top"/>
    </contour>
  </outline>
</glyph>
<glyph name="Y" format="1">
  <advance width="1306"/>
  <unicode hex="0059"/>
  <outline>
    <contour>
      <point x="550" y="0" type="line"/>
      <point x="754" y="0" type="line"/>
      <point x="754" y="534" type="line"/>
      <point x="1290" y="1456" type="line"/>
      <point x="1063" y="1456" type="line"/>
      <point x="723" y="851" type="line" smooth="yes"/>
      <point x="705" y="818"/>
      <point x="670" y="757"/>
      <point x="660" y="737" type="qcurve"/>
      <point x="657" y="737" type="line"/>
      <point x="648" y="758"/>
      <point x="607" y="833"/>
      <point x="597" y="852" type="qcurve" smooth="yes"/>
      <point x="247" y="1456" type="line"/>
      <point x="16" y="1456" type="line"/>
      <point x="550" y="539" type="line"/>
    </contour>
    <contour>
      <point x="682" y="1432" type="move" name="top"/>
    </contour>
  </outline>
</glyph>
<glyph name="b" format="1">
  <advance width="1284"/>
  <unicode hex="0062"/>
  <outline>
    <contour>
      <point x="170" y="0" type="line"/>
      <point x="351" y="0" type="line"/>
      <point x="364" y="150" type="line"/>
      <point x="364" y="150" type="line"/>
      <point x="421" y="72"/>
      <point x="606" y="-23"/>
      <point x="730" y="-23" type="qcurve" smooth="yes"/>
      <point x="944" y="-23"/>
      <point x="1188" y="293"/>
      <point x="1188" y="545" type="qcurve" smooth="yes"/>
      <point x="1188" y="578" type="line" smooth="yes"/>
      <point x="1188" y="827"/>
      <point x="949" y="1123"/>
      <point x="733" y="1123" type="qcurve" smooth="yes"/>
      <point x="609" y="1123"/>
      <point x="428" y="1030"/>
      <point x="368" y="953" type="qcurve"/>
      <point x="368" y="1536" type="line"/>
      <point x="170" y="1536" type="line"/>
    </contour>
    <contour>
      <point x="368" y="355" type="qcurve"/>
      <point x="368" y="757" type="line"/>
      <point x="398" y="829"/>
      <point x="555" y="950"/>
      <point x="690" y="950" type="qcurve" smooth="yes"/>
      <point x="844" y="950"/>
      <point x="989" y="744"/>
      <point x="989" y="578" type="qcurve" smooth="yes"/>
      <point x="989" y="545" type="line" smooth="yes"/>
      <point x="989" y="375"/>
      <point x="844" y="147"/>
      <point x="681" y="147" type="qcurve" smooth="yes"/>
      <point x="551" y="147"/>
      <point x="401" y="275"/>
    </contour>
  </outline>
</glyph>
<glyph name="c" format="1">
  <advance width="1137"/>
  <unicode hex="0063"/>
  <outline>
    <contour>
      <point x="96" y="530" type="line" smooth="yes"/>
      <point x="96" y="276"/>
      <point x="364" y="-32"/>
      <point x="623" y="-32" type="qcurve" smooth="yes"/>
      <point x="871" y="-32"/>
      <point x="1101" y="186"/>
      <point x="1101" y="327" type="qcurve" smooth="yes"/>
      <point x="1101" y="352" type="line"/>
      <point x="913" y="352" type="line"/>
      <point x="913" y="327" type="line" smooth="yes"/>
      <point x="913" y="241"/>
      <point x="783" y="133"/>
      <point x="637" y="133" type="qcurve" smooth="yes"/>
      <point x="454" y="133"/>
      <point x="299" y="335"/>
      <point x="299" y="530" type="qcurve" smooth="yes"/>
      <point x="299" y="570" type="line" smooth="yes"/>
      <point x="299" y="748"/>
      <point x="461" y="955"/>
      <point x="624" y="955" type="qcurve" smooth="yes"/>
      <point x="774" y="955"/>
      <point x="913" y="824"/>
      <point x="913" y="735" type="qcurve" smooth="yes"/>
      <point x="913" y="707" type="line"/>
      <point x="1101" y="707" type="line"/>
      <point x="1101" y="744" type="line" smooth="yes"/>
      <point x="1101" y="888"/>
      <point x="876" y="1122"/>
      <point x="623" y="1122" type="qcurve" smooth="yes"/>
      <point x="373" y="1122"/>
      <point x="96" y="823"/>
      <point x="96" y="570" type="qcurve" smooth="yes"/>
    </contour>
    <contour>
      <point x="720" y="0" type="move" name="bottom"/>
    </contour>
  </outline>
</glyph>
<glyph name="e" format="1">
  <advance width="1155"/>
  <unicode hex="0065"/>
  <outline>
    <contour>
      <point x="96" y="523" type="line" smooth="yes"/>
      <point x="96" y="273"/>
      <point x="369" y="-32"/>
      <point x="635" y="-32" type="qcurve" smooth="yes"/>
      <point x="792.0" y="-32.0"/>
      <point x="1005.3134328358209" y="62.31343283582089"/>
      <point x="1076" y="133" type="qcurve"/>
      <point x="971" y="264" type="line"/>
      <point x="910" y="210"/>
      <point x="769" y="138"/>
      <point x="650" y="138" type="qcurve" smooth="yes"/>
      <point x="482" y="138"/>
      <point x="290" y="338"/>
      <point x="290" y="522" type="qcurve" smooth="yes"/>
      <point x="290" y="565" type="line" smooth="yes"/>
      <point x="290" y="752"/>
      <point x="470" y="955"/>
      <point x="616" y="955" type="qcurve" smooth="yes"/>
      <point x="764" y="955"/>
      <point x="900" y="786"/>
      <point x="901" y="696" type="qcurve" smooth="yes"/>
      <point x="901" y="660" type="line"/>
      <point x="216" y="660" type="line"/>
      <point x="216" y="500" type="line"/>
      <point x="1099" y="500" type="line"/>
      <point x="1099" y="610" type="line" smooth="yes"/>
      <point x="1099" y="822"/>
      <point x="863" y="1122"/>
      <point x="628" y="1122" type="qcurve" smooth="yes"/>
      <point x="379" y="1122"/>
      <point x="96" y="820"/>
      <point x="96" y="565" type="qcurve" smooth="yes"/>
    </contour>
    <contour>
      <point x="581" y="1052" type="move" name="top"/>
    </contour>
  </outline>
</glyph>
<glyph name="g" format="1">
  <advance width="1282"/>
  <unicode hex="0067"/>
  <outline>
    <contour>
      <point x="138" y="-284" type="line"/>
      <point x="175" y="-322"/>
      <point x="408" y="-441"/>
      <point x="613" y="-441" type="qcurve" smooth="yes"/>
      <point x="831" y="-441"/>
      <point x="1112" y="-191"/>
      <point x="1112" y="23" type="qcurve" smooth="yes"/>
      <point x="1112" y="1089" type="line"/>
      <point x="943" y="1089" type="line"/>
      <point x="928" y="930" type="line"/>
      <point x="928" y="930" type="line"/>
      <point x="887" y="1012"/>
      <point x="705" y="1122"/>
      <point x="566" y="1122" type="qcurve" smooth="yes"/>
      <point x="359" y="1122"/>
      <point x="96" y="815"/>
      <point x="96" y="560" type="qcurve" smooth="yes"/>
      <point x="96" y="527" type="line" smooth="yes"/>
      <point x="96" y="271"/>
      <point x="341" y="-18"/>
      <point x="563" y="-18" type="qcurve" smooth="yes"/>
      <point x="705" y="-18"/>
      <point x="881" y="97"/>
      <point x="920" y="187" type="qcurve"/>
      <point x="920" y="14" type="line" smooth="yes"/>
      <point x="920" y="-118"/>
      <point x="747" y="-265"/>
      <point x="598" y="-265" type="qcurve" smooth="yes"/>
      <point x="481" y="-265"/>
      <point x="312" y="-189"/>
      <point x="266" y="-139" type="qcurve"/>
    </contour>
    <contour>
      <point x="299" y="530" type="qcurve" smooth="yes"/>
      <point x="299" y="563" type="line" smooth="yes"/>
      <point x="299" y="748"/>
      <point x="455" y="955"/>
      <point x="602" y="955" type="qcurve" smooth="yes"/>
      <point x="729" y="955"/>
      <point x="888" y="811"/>
      <point x="914" y="712" type="qcurve"/>
      <point x="914" y="396" type="line"/>
      <point x="881" y="293"/>
      <point x="722" y="154"/>
      <point x="601" y="154" type="qcurve" smooth="yes"/>
      <point x="454" y="154"/>
      <point x="299" y="350"/>
    </contour>
  </outline>
</glyph>
<glyph name="j" format="1">
  <advance width="539"/>
  <unicode hex="006A"/>
  <outline>
    <contour>
      <point x="-154" y="-389" type="line"/>
      <point x="-129" y="-412"/>
      <point x="-5" y="-437"/>
      <point x="64" y="-437" type="qcurve" smooth="yes"/>
      <point x="212" y="-437"/>
      <point x="369" y="-243"/>
      <point x="369" y="-15" type="qcurve" smooth="yes"/>
      <point x="369" y="1089" type="line"/>
      <point x="171" y="1089" type="line"/>
      <point x="171" y="-58" type="line" smooth="yes"/>
      <point x="171" y="-178"/>
      <point x="91" y="-259"/>
      <point x="29" y="-259" type="qcurve" smooth="yes"/>
      <point x="-36" y="-259"/>
      <point x="-132" y="-221"/>
      <point x="-154" y="-209" type="qcurve"/>
    </contour>
    <contour>
      <point x="147" y="1373" type="qcurve" smooth="yes"/>
      <point x="147" y="1324"/>
      <point x="209" y="1258"/>
      <point x="267" y="1258" type="qcurve" smooth="yes"/>
      <point x="326" y="1258"/>
      <point x="389" y="1324"/>
      <point x="389" y="1373" type="qcurve" smooth="yes"/>
      <point x="389" y="1425"/>
      <point x="326" y="1492"/>
      <point x="267" y="1492" type="qcurve" smooth="yes"/>
      <point x="209" y="1492"/>
      <point x="147" y="1425"/>
    </contour>
  </outline>
</glyph>
<glyph name="k" format="1">
  <advance width="1091"/>
  <unicode hex="006B"/>
  <outline>
    <contour>
      <point x="170" y="0" type="line"/>
      <point x="368" y="0" type="line"/>
      <point x="368" y="377" type="line"/>
      <point x="1092" y="1089" type="line"/>
      <point x="850" y="1089" type="line"/>
      <point x="368" y="590" type="line"/>
      <point x="368" y="1536" type="line"/>
      <point x="170" y="1536" type="line"/>
    </contour>
    <contour>
      <point x="900" y="0" type="line"/>
      <point x="1145" y="0" type="line"/>
      <point x="579" y="698" type="line"/>
      <point x="443" y="563" type="line"/>
    </contour>
  </outline>
</glyph>
<glyph name="l" format="1">
  <advance width="538"/>
  <unicode hex="006C"/>
  <outline>
    <contour>
      <point x="170" y="0" type="line"/>
      <point x="368" y="0" type="line"/>
      <point x="368" y="1536" type="line"/>
      <point x="170" y="1536" type="line"/>
    </contour>
  </outline>
</glyph>
<glyph name="m" format="1">
  <advance width="1942"/>
  <unicode hex="006D"/>
  <outline>
    <contour>
      <point x="170" y="0" type="line"/>
      <point x="368" y="0" type="line"/>
      <point x="368" y="763" type="line"/>
      <point x="402" y="831"/>
      <point x="554" y="949"/>
      <point x="664" y="949" type="qcurve" smooth="yes"/>
      <point x="775" y="949"/>
      <point x="878" y="815"/>
      <point x="878" y="702" type="qcurve" smooth="yes"/>
      <point x="878" y="0" type="line"/>
      <point x="1076" y="0" type="line"/>
      <point x="1076" y="784" type="line"/>
      <point x="1104" y="836"/>
      <point x="1249" y="945"/>
      <point x="1347" y="945" type="qcurve" smooth="yes"/>
      <point x="1462" y="945"/>
      <point x="1586" y="831"/>
      <point x="1586" y="703" type="qcurve" smooth="yes"/>
      <point x="1586" y="0" type="line"/>
      <point x="1784" y="0" type="line"/>
      <point x="1784" y="703" type="line" smooth="yes"/>
      <point x="1784" y="906"/>
      <point x="1590" y="1116"/>
      <point x="1406" y="1116" type="qcurve" smooth="yes"/>
      <point x="1262" y="1116"/>
      <point x="1085" y="1001"/>
      <point x="1043" y="932" type="qcurve"/>
      <point x="1043" y="932" type="line"/>
      <point x="1003" y="1020"/>
      <point x="839" y="1120"/>
      <point x="707" y="1120" type="qcurve" smooth="yes"/>
      <point x="585" y="1120"/>
      <point x="409" y="1011"/>
      <point x="360" y="926" type="qcurve"/>
      <point x="349" y="926" type="line"/>
      <point x="340" y="1089" type="line"/>
      <point x="170" y="1089" type="line"/>
    </contour>
  </outline>
</glyph>
<glyph name="n" format="1">
  <advance width="1254"/>
  <unicode hex="006E"/>
  <outline>
    <contour>
      <point x="170" y="0" type="line"/>
      <point x="368" y="0" type="line"/>
      <point x="368" y="763" type="line"/>
      <point x="407" y="836"/>
      <point x="557" y="945"/>
      <point x="662" y="945" type="qcurve" smooth="yes"/>
      <point x="779" y="945"/>
      <point x="898" y="828"/>
      <point x="898" y="702" type="qcurve" smooth="yes"/>
      <point x="898" y="0" type="line"/>
      <point x="1096" y="0" type="line"/>
      <point x="1096" y="701" type="line" smooth="yes"/>
      <point x="1096" y="918"/>
      <point x="895" y="1116"/>
      <point x="721" y="1116" type="qcurve" smooth="yes"/>
      <point x="589" y="1116"/>
      <point x="397" y="999"/>
      <point x="359" y="926" type="qcurve"/>
      <point x="349" y="926" type="line"/>
      <point x="340" y="1089" type="line"/>
      <point x="170" y="1089" type="line"/>
    </contour>
    <contour>
      <point x="596" y="1155" type="move" name="top"/>
    </contour>
  </outline>
</glyph>
<glyph name="o" format="1">
  <advance width="1271"/>
  <unicode hex="006F"/>
  <outline>
    <contour>
      <point x="96" y="524" type="line" smooth="yes"/>
      <point x="96" y="271"/>
      <point x="390" y="-32"/>
      <point x="637" y="-32" type="qcurve" smooth="yes"/>
      <point x="882" y="-32"/>
      <point x="1175" y="271"/>
      <point x="1175" y="523" type="qcurve" smooth="yes"/>
      <point x="1175" y="565" type="line" smooth="yes"/>
      <point x="1175" y="824"/>
      <point x="889" y="1122"/>
      <point x="635" y="1122" type="qcurve" smooth="yes"/>
      <point x="390" y="1122"/>
      <point x="96" y="817"/>
      <point x="96" y="563" type="qcurve" smooth="yes"/>
    </contour>
    <contour>
      <point x="299" y="563" type="line" smooth="yes"/>
      <point x="299" y="736"/>
      <point x="466" y="955"/>
      <point x="635" y="955" type="qcurve" smooth="yes"/>
      <point x="804" y="955"/>
      <point x="972" y="736"/>
      <point x="972" y="565" type="qcurve" smooth="yes"/>
      <point x="972" y="523" type="line" smooth="yes"/>
      <point x="972" y="349"/>
      <point x="804" y="134"/>
      <point x="637" y="134" type="qcurve" smooth="yes"/>
      <point x="466" y="134"/>
      <point x="299" y="350"/>
      <point x="299" y="524" type="qcurve" smooth="yes"/>
    </contour>
    <contour>
      <point x="581" y="1052" type="move" name="top"/>
    </contour>
  </outline>
</glyph>
<glyph name="q" format="1">
  <advance width="1283"/>
  <unicode hex="0071"/>
  <outline>
    <contour>
      <point x="96" y="533" type="line" smooth="yes"/>
      <point x="96" y="268"/>
      <point x="349" y="-25"/>
      <point x="562" y="-25" type="qcurve" smooth="yes"/>
      <point x="680" y="-25"/>
      <point x="860" y="69"/>
      <point x="915" y="144" type="qcurve"/>
      <point x="915" y="-416" type="line"/>
      <point x="1113" y="-416" type="line"/>
      <point x="1113" y="1089" type="line"/>
      <point x="943" y="1089" type="line"/>
      <point x="930" y="970" type="line"/>
      <point x="930" y="970" type="line"/>
      <point x="871" y="1043"/>
      <point x="688" y="1123"/>
      <point x="565" y="1123" type="qcurve" smooth="yes"/>
      <point x="346" y="1123"/>
      <point x="96" y="819"/>
      <point x="96" y="559" type="qcurve" smooth="yes"/>
    </contour>
    <contour>
      <point x="299" y="532" type="qcurve" smooth="yes"/>
      <point x="299" y="559" type="line" smooth="yes"/>
      <point x="299" y="730"/>
      <point x="458" y="956"/>
      <point x="606" y="956" type="qcurve" smooth="yes"/>
      <point x="726" y="956"/>
      <point x="880" y="846"/>
      <point x="916" y="763" type="qcurve"/>
      <point x="916" y="348" type="line"/>
      <point x="878" y="263"/>
      <point x="727" y="142"/>
      <point x="607" y="142" type="qcurve" smooth="yes"/>
      <point x="449" y="142"/>
      <point x="299" y="345"/>
    </contour>
  </outline>
</glyph>
<glyph name="r" format="1">
  <advance width="786"/>
  <unicode hex="0072"/>
  <outline>
    <contour>
      <point x="170" y="0" type="line"/>
      <point x="368" y="0" type="line"/>
      <point x="368" y="760" type="line"/>
      <point x="401" y="830"/>
      <point x="534" y="929"/>
      <point x="638" y="929" type="qcurve" smooth="yes"/>
      <point x="673" y="929"/>
      <point x="757" y="912"/>
      <point x="782" y="900" type="qcurve"/>
      <point x="782" y="1102" type="line"/>
      <point x="768" y="1110"/>
      <point x="698" y="1122"/>
      <point x="652" y="1122" type="qcurve" smooth="yes"/>
      <point x="550" y="1122"/>
      <point x="386" y="1002"/>
      <point x="359" y="926" type="qcurve"/>
      <point x="349" y="926" type="line"/>
      <point x="340" y="1089" type="line"/>
      <point x="170" y="1089" type="line"/>
    </contour>
  </outline>
</glyph>
<glyph name="t" format="1">
  <advance width="705"/>
  <unicode hex="0074"/>
  <outline>
    <contour>
      <point x="0" y="933" type="line"/>
      <point x="693" y="933" type="line"/>
      <point x="693" y="1089" type="line"/>
      <point x="0" y="1089" type="line"/>
    </contour>
    <contour>
      <point x="206" y="270" type="line" smooth="yes"/>
      <point x="206" y="118"/>
      <point x="384" y="-30"/>
      <point x="496" y="-30" type="qcurve" smooth="yes"/>
      <point x="548" y="-30"/>
      <point x="662" y="-12"/>
      <point x="689" y="1" type="qcurve"/>
      <point x="689" y="164" type="line"/>
      <point x="663" y="154"/>
      <point x="586" y="144"/>
      <point x="553" y="144" type="qcurve" smooth="yes"/>
      <point x="498" y="144"/>
      <point x="403" y="201"/>
      <point x="403" y="282" type="qcurve" smooth="yes"/>
      <point x="403" y="1355" type="line"/>
      <point x="206" y="1355" type="line"/>
      <point x="206" y="1030" type="line"/>
      <point x="206" y="997" type="line"/>
    </contour>
  </outline>
</glyph>
<glyph name="w" format="1">
  <advance width="1689"/>
  <unicode hex="0077"/>
  <outline>
    <contour>
      <point x="24" y="1089" type="line"/>
      <point x="367" y="0" type="line"/>
      <point x="546" y="0" type="line"/>
      <point x="760" y="626" type="line" smooth="yes"/>
      <point x="789" y="712"/>
      <point x="823" y="842"/>
      <point x="829" y="877" type="qcurve"/>
      <point x="840" y="877" type="line"/>
      <point x="845" y="844"/>
      <point x="884" y="703"/>
      <point x="911" y="630" type="qcurve" smooth="yes"/>
      <point x="1143" y="0" type="line"/>
      <point x="1321" y="0" type="line"/>
      <point x="1665" y="1089" type="line"/>
      <point x="1473" y="1089" type="line"/>
      <point x="1296" y="481" type="line" smooth="yes"/>
      <point x="1265" y="374"/>
      <point x="1241" y="272"/>
      <point x="1234" y="218" type="qcurve"/>
      <point x="1221" y="218" type="line"/>
      <point x="1212" y="280"/>
      <point x="1191" y="361"/>
      <point x="1149" y="480" type="qcurve" smooth="yes"/>
      <point x="936" y="1089" type="line"/>
      <point x="751" y="1089" type="line"/>
      <point x="550" y="474" type="line" smooth="yes"/>
      <point x="515" y="366"/>
      <point x="487" y="261"/>
      <point x="482" y="218" type="qcurve"/>
      <point x="469" y="218" type="line"/>
      <point x="464" y="261"/>
      <point x="437" y="363"/>
      <point x="404" y="476" type="qcurve" smooth="yes"/>
      <point x="225" y="1089" type="line"/>
    </contour>
  </outline>
</glyph>
